<svg width="106" height="100" viewBox="0 0 106 100" fill="none" xmlns="http://www.w3.org/2000/svg">
<path d="M0 50.0342V99.4103H52.5123H105.025V50.0342V0.65815H52.5123H0V50.0342ZM74.3583 25.1726C78.9531 25.5969 82.1121 26.7927 84.3685 28.8951C86.7274 31.1132 87.8351 33.7748 87.8146 37.1887C87.7941 41.8949 85.6608 45.1159 80.7377 47.8933C79.5275 48.5877 78.5019 49.2049 78.4608 49.282C78.3378 49.4556 80.5736 54.0267 82.7685 58.135C85.8044 63.7476 89.1684 68.666 91.5274 70.8647C92.8607 72.1377 94.235 72.7549 96.8401 73.2757C99.3222 73.7579 99.7119 73.9507 99.3632 74.4908C99.1581 74.7801 98.5427 74.8187 92.4504 74.8187C86.2556 74.8187 85.7633 74.7994 85.3736 74.4715C85.1274 74.2593 83.0557 70.5369 80.7377 66.1779C76.6967 58.5207 73.2711 52.7345 72.0609 51.5194C71.1173 50.5743 70.4609 50.42 67.384 50.42H64.5943L64.6558 60.7195L64.7174 71.019L65.2302 71.5591C65.9891 72.3113 67.8353 73.0828 69.8865 73.4686C71.9173 73.8543 72.4301 74.1436 71.9994 74.6065C71.7737 74.8765 70.4609 74.9151 61.0251 74.9151C49.7226 74.9151 49.6201 74.9151 49.9688 74.0665C50.0303 73.8929 50.1329 73.7579 50.1534 73.7579C50.6662 73.7579 55.9995 72.7163 56.4918 72.5235C57.7636 72.022 57.8251 71.617 58.0713 64.3648C58.2969 56.997 58.1328 32.2125 57.8251 30.5538C57.4559 28.5093 56.3482 27.815 52.9226 27.4678C50.3175 27.1978 50.0098 27.0628 50.0919 26.2527C50.1329 25.8091 50.2765 25.6162 50.6662 25.5198C50.9534 25.4426 54.2354 25.3655 57.9482 25.3462C61.6815 25.3269 65.6815 25.2305 66.8712 25.1533C70.2968 24.9411 71.9788 24.9411 74.3583 25.1726ZM29.6202 25.4619C30.2972 26.0791 29.8459 26.6963 28.7382 26.6963C27.4459 26.6963 24.0818 27.2556 22.8511 27.6414C22.2152 27.8728 21.4562 28.22 21.2101 28.4515C20.246 29.3001 20.2255 29.8595 20.5947 47.0446C20.7793 55.8398 20.9229 64.8856 20.9229 67.123C20.9229 70.4211 20.9844 71.2505 21.2101 71.4241C21.8665 71.9448 34.6253 72.4077 37.9484 72.0413C40.4714 71.7713 42.0714 71.0576 43.774 69.4182C45.1893 68.0681 46.8509 65.5414 47.8355 63.304C48.4714 61.8382 48.5124 61.7996 49.1893 61.7996C49.8252 61.7996 49.8662 61.8382 49.7637 62.3204C49.3944 63.9405 48.7175 67.7402 48.2252 70.9612L47.6509 74.6258L26.81 74.6837C8.08198 74.7222 5.94866 74.703 5.66149 74.4136C5.47687 74.2593 5.33328 74.0086 5.33328 73.8929C5.3538 73.2757 5.76405 73.1214 8.02044 72.8706C11.4461 72.5042 13.1281 72.1763 13.6204 71.8098C14.0306 71.4819 14.0512 71.2698 14.2358 65.715C14.3588 61.7996 14.3178 55.0683 14.1332 44.6144C13.8665 30.0331 13.8255 29.223 13.4563 28.8372C12.923 28.2779 11.364 27.7764 8.38967 27.1785C6.99481 26.9085 5.76405 26.5999 5.682 26.5227C5.57944 26.4263 5.53841 26.1563 5.57944 25.9055L5.64097 25.4426L15.9999 25.3462C21.7024 25.2883 27.0151 25.2305 27.8356 25.1919C28.9433 25.1726 29.3741 25.2305 29.6202 25.4619Z" fill="black"/>
<path d="M65.4147 27.4098L64.6763 27.487L64.5532 29.0686C64.4917 29.9365 64.5327 33.7361 64.6147 37.4972C64.7173 41.2583 64.7993 45.2508 64.8199 46.3502V48.3561L68.0608 48.2404C71.6711 48.1246 73.148 47.8353 75.4249 46.8324C78.3582 45.5208 80.1223 43.1677 80.6146 39.8889C81.312 35.337 79.6915 31.4795 76.2249 29.3579C73.7429 27.8534 69.2096 27.0241 65.4147 27.4098Z" fill="black"/>
</svg>
