<?xml version="1.0" standalone="no"?>
<!DOCTYPE svg PUBLIC "-//W3C//DTD SVG 20010904//EN"
 "http://www.w3.org/TR/2001/REC-SVG-20010904/DTD/svg10.dtd">
<svg version="1.0" xmlns="http://www.w3.org/2000/svg"
 width="512.000000pt" height="512.000000pt" viewBox="0 0 512.000000 512.000000"
 preserveAspectRatio="xMidYMid meet">
<metadata>
Created by potrace 1.16, written by Peter Selinger 2001-2019
</metadata>
<g transform="translate(0.000000,512.000000) scale(0.100000,-0.100000)"
fill="#000000" stroke="none">
<path d="M0 2560 l0 -2560 2560 0 2560 0 0 2560 0 2560 -2560 0 -2560 0 0
-2560z m3625 1289 c224 -22 378 -84 488 -193 115 -115 169 -253 168 -430 -1
-244 -105 -411 -345 -555 -59 -36 -109 -68 -111 -72 -6 -9 103 -246 210 -459
148 -291 312 -546 427 -660 65 -66 132 -98 259 -125 121 -25 140 -35 123 -63
-10 -15 -40 -17 -337 -17 -302 0 -326 1 -345 18 -12 11 -113 204 -226 430
-197 397 -364 697 -423 760 -46 49 -78 57 -228 57 l-136 0 3 -534 3 -534 25
-28 c37 -39 127 -79 227 -99 99 -20 124 -35 103 -59 -11 -14 -75 -16 -535 -16
-551 0 -556 0 -539 44 3 9 8 16 9 16 25 0 285 54 309 64 62 26 65 47 77 423
11 382 3 1667 -12 1753 -18 106 -72 142 -239 160 -127 14 -142 21 -138 63 2
23 9 33 28 38 14 4 174 8 355 9 182 1 377 6 435 10 167 11 249 11 365 -1z
m-2181 -15 c33 -32 11 -64 -43 -64 -63 0 -227 -29 -287 -49 -31 -12 -68 -30
-80 -42 -47 -44 -48 -73 -30 -964 9 -456 16 -925 16 -1041 0 -171 3 -214 14
-223 32 -27 654 -51 816 -32 123 14 201 51 284 136 69 70 150 201 198 317 31
76 33 78 66 78 31 0 33 -2 28 -27 -18 -84 -51 -281 -75 -448 l-28 -190 -1016
-3 c-913 -2 -1017 -1 -1031 14 -9 8 -16 21 -16 27 1 32 21 40 131 53 167 19
249 36 273 55 20 17 21 28 30 316 6 203 4 552 -5 1094 -13 756 -15 798 -33
818 -26 29 -102 55 -247 86 -68 14 -128 30 -132 34 -5 5 -7 19 -5 32 l3 24
505 5 c278 3 537 6 577 8 54 1 75 -2 87 -14z"/>
<path d="M3189 3733 l-36 -4 -6 -82 c-3 -45 -1 -242 3 -437 5 -195 9 -402 10
-459 l0 -104 158 6 c176 6 248 21 359 73 143 68 229 190 253 360 34 236 -45
436 -214 546 -121 78 -342 121 -527 101z"/>
</g>
</svg>
